<svg xmlns="http://www.w3.org/2000/svg" width="414" height="365" viewBox="0 0 414 365" fill="none">
  <path d="M390.489 364.894H23.0467C14.7216 364.894 7.27346 360.591 3.11088 353.384C-1.05169 346.176 -1.05169 337.574 3.11088 330.367L186.832 12.1525C190.995 4.9452 198.447 0.641754 206.768 0.641754C215.093 0.641754 222.541 4.9452 226.699 12.1525L410.421 330.367C414.583 337.574 414.583 346.176 410.425 353.384C406.267 360.591 398.815 364.894 390.489 364.894ZM206.768 14.2746C203.373 14.2746 200.333 16.0287 198.634 18.9689L14.917 337.179C13.2219 340.114 13.2219 343.627 14.917 346.563C16.6165 349.503 19.6521 351.257 23.0467 351.257H390.489C393.884 351.257 396.924 349.498 398.619 346.563C400.314 343.627 400.314 340.114 398.619 337.179L214.898 18.9689C213.203 16.0287 210.163 14.2746 206.768 14.2746ZM206.768 320.574C188.114 320.574 172.931 305.396 172.931 286.742C172.931 268.087 188.109 252.909 206.768 252.909C225.427 252.909 240.6 268.087 240.6 286.742C240.6 305.396 225.427 320.574 206.768 320.574ZM206.768 266.542C195.63 266.542 186.564 275.604 186.564 286.742C186.564 297.88 195.63 306.941 206.768 306.941C217.906 306.941 226.967 297.88 226.967 286.742C226.967 275.604 217.906 266.542 206.768 266.542ZM206.768 237.963C189.527 237.963 175.494 223.935 175.494 206.689V133.331C175.494 116.09 189.522 102.057 206.768 102.057C224.009 102.057 238.037 116.085 238.037 133.331V206.694C238.037 223.939 224.009 237.963 206.768 237.963ZM206.768 115.69C197.039 115.69 189.127 123.601 189.127 133.331V206.694C189.127 216.423 197.039 224.335 206.768 224.335C216.493 224.335 224.404 216.423 224.404 206.694V133.331C224.404 123.601 216.493 115.69 206.768 115.69Z" fill="url(#paint0_linear_7_4)"/>
  <defs>
    <linearGradient id="paint0_linear_7_4" x1="206.766" y1="0.641754" x2="206.766" y2="364.894" gradientUnits="userSpaceOnUse">
      <stop stop-color="#FE0000"/>
      <stop offset="1" stop-color="#FD0000" stop-opacity="0.02"/>
    </linearGradient>
  </defs>
</svg>